<?xml version="1.0" encoding="UTF-8"?>
<svg width="20px" height="24px" viewBox="0 0 20 24" version="1.1" xmlns="http://www.w3.org/2000/svg" xmlns:xlink="http://www.w3.org/1999/xlink">
    <!-- Generator: Sketch 55.1 (78136) - https://sketchapp.com -->
    <title>android</title>
    <desc>Created with Sketch.</desc>
    <g id="Landing" stroke="none" stroke-width="1" fill="none" fill-rule="evenodd">
        <g id="Background-pattern-images" transform="translate(-1351.000000, -100.000000)" fill="#FFFFFF" fill-rule="nonzero">
            <g id="android" transform="translate(1351.000000, 100.000000)">
                <path d="M3.70052083,17.6744792 C3.70052083,18.2838542 4.19791667,18.78125 4.80989583,18.78125 L6.078125,18.78125 L6.078125,21.9166667 C6.078125,22.7109375 6.71614583,23.359375 7.5,23.359375 C8.28645833,23.359375 8.921875,22.7135417 8.921875,21.9166667 L8.921875,18.7786458 L11.1354167,18.7786458 L11.1354167,21.9140625 C11.1354167,22.7083333 11.7734375,23.3567708 12.5572917,23.3567708 C13.34375,23.3567708 13.9791667,22.7109375 13.9791667,21.9140625 L13.9791667,18.7786458 L15.2473958,18.7786458 C15.859375,18.7786458 16.3567708,18.28125 16.3567708,17.671875 L16.3567708,7.38020833 L3.70052083,7.38020833 L3.70052083,17.6744792 L3.70052083,17.6744792 Z M13,2.046875 L14.1692708,0.354166667 C14.2369792,0.255208333 14.2213542,0.122395833 14.1302083,0.0572916667 C14.0390625,-0.00520833333 13.9088542,0.0260416667 13.8411458,0.125 L12.6276042,1.88541667 C11.828125,1.5703125 10.9375,1.39583333 10.0026042,1.39583333 C9.06770833,1.39583333 8.17708333,1.5703125 7.37760417,1.88541667 L6.1640625,0.127604167 C6.09635417,0.0286458333 5.96614583,-0.00520833333 5.875,0.0598958333 C5.78385417,0.122395833 5.76822917,0.252604167 5.8359375,0.356770833 L7.00520833,2.04947917 C5.14583333,2.9140625 3.84375,4.55208333 3.67708333,6.46614583 L16.3333333,6.46614583 C16.1614583,4.54947917 14.8567708,2.91145833 13,2.046875 L13,2.046875 Z M7.33072917,4.71614583 C6.94384219,4.71614583 6.63020833,4.40251197 6.63020833,4.015625 C6.63020833,3.62873803 6.94384219,3.31510417 7.33072917,3.31510417 C7.71761614,3.31510417 8.03125,3.62873803 8.03125,4.015625 C8.03024822,4.40209626 7.71720043,4.71514405 7.33072917,4.71614583 L7.33072917,4.71614583 Z M12.7578125,4.71614583 C12.3709255,4.71614583 12.0572917,4.40251197 12.0572917,4.015625 C12.0572917,3.62873803 12.3709255,3.31510417 12.7578125,3.31510417 C13.1446995,3.31510417 13.4583333,3.62873803 13.4583333,4.015625 C13.4573316,4.40209626 13.1442838,4.71514405 12.7578125,4.71614583 Z M18.5755208,7.33854167 C17.7890625,7.33854167 17.1536458,7.984375 17.1536458,8.78125 L17.1536458,14.4166667 C17.1536458,15.2109375 17.7916667,15.859375 18.5755208,15.859375 C19.3619792,15.859375 19.9974038,15.2135417 19.9974038,14.4166667 L19.9974038,8.77864583 C20,7.98177083 19.3645833,7.33854167 18.5755208,7.33854167 Z M1.42447917,7.33854167 C0.638020833,7.33854167 0.00260416667,7.984375 0.00260416667,8.78125 L0.00260416667,14.4166667 C0.00260416667,15.2109375 0.640625,15.859375 1.42447917,15.859375 C2.2109375,15.859375 2.84635417,15.2135417 2.84635417,14.4166667 L2.84635417,8.77864583 C2.84635417,7.98177083 2.20833333,7.33854167 1.42447917,7.33854167 Z" id="Shape"></path>
            </g>
        </g>
    </g>
</svg>