<?xml version="1.0" encoding="UTF-8"?>
<svg width="20px" height="24px" viewBox="0 0 20 24" version="1.1" xmlns="http://www.w3.org/2000/svg" xmlns:xlink="http://www.w3.org/1999/xlink">
    <!-- Generator: Sketch 55.1 (78136) - https://sketchapp.com -->
    <title>apple</title>
    <desc>Created with Sketch.</desc>
    <g id="Landing" stroke="none" stroke-width="1" fill="none" fill-rule="evenodd">
        <g id="Background-pattern-images" transform="translate(-1281.000000, -101.000000)" fill="#FFFFFF" fill-rule="nonzero">
            <g id="apple" transform="translate(1281.000000, 101.000000)">
                <path d="M16.72103,12.5808298 C16.7095851,10.6294707 17.5937053,9.15879828 19.379113,8.07439199 C18.3805436,6.64377682 16.869814,5.85693848 14.8783977,5.70529328 C12.9928469,5.5565093 10.9298999,6.80400572 10.1745351,6.80400572 C9.37625179,6.80400572 7.55078684,5.75679542 6.11444921,5.75679542 C3.15021459,5.80257511 0,8.12017167 0,12.8354793 C0,14.2288984 0.254649499,15.6680973 0.763948498,17.1502146 C1.44492132,19.1015737 3.89985694,23.8826896 6.46065808,23.8054363 C7.79971388,23.7739628 8.74678112,22.8555079 10.4892704,22.8555079 C12.1802575,22.8555079 13.055794,23.8054363 14.5493562,23.8054363 C17.1330472,23.7682403 19.3533619,19.4220315 20,17.4649499 C16.5350501,15.8311874 16.72103,12.6809728 16.72103,12.5808298 Z M13.713877,3.85407725 C15.1645207,2.1316166 15.0329041,0.563662375 14.9899857,5.68434189e-14 C13.7081545,0.0743919886 12.2260372,0.87267525 11.3819742,1.85407725 C10.4520744,2.90701001 9.9055794,4.20886981 10.0228898,5.67668097 C11.4077253,5.78254649 12.6723891,5.07010014 13.713877,3.85407725 L13.713877,3.85407725 Z" id="Shape"></path>
            </g>
        </g>
    </g>
</svg>