<?xml version="1.0" encoding="UTF-8"?>
<svg width="20px" height="22px" viewBox="0 0 20 22" version="1.1" xmlns="http://www.w3.org/2000/svg" xmlns:xlink="http://www.w3.org/1999/xlink">
    <!-- Generator: Sketch 55.1 (78136) - https://sketchapp.com -->
    <title>experiment</title>
    <desc>Created with Sketch.</desc>
    <g id="Landing" stroke="none" stroke-width="1" fill="none" fill-rule="evenodd">
        <g id="Background-pattern-images" transform="translate(-1386.000000, -102.000000)" fill="#FFFFFF" fill-rule="nonzero">
            <g id="experiment" transform="translate(1386.000000, 102.000000)">
                <path d="M2.09973046,14.1320755 L3.24797844,14.8490566 C3.25067385,14.851752 3.25606469,14.8544474 3.25876011,14.8571429 L3.60107817,15.0727763 L3.60916442,15.0808625 C4.379982,15.5265644 5.25515763,15.7600065 6.14555256,15.7574338 C7.35579515,15.7574338 8.49595687,15.3342318 9.40700809,14.5768194 C10.6524868,13.532456 12.2263568,12.960747 13.851752,12.9622642 C15.2614555,12.9622642 16.606469,13.3854447 17.7493261,14.1617251 L17.9622642,14.296496 L14.9541779,6.50673854 L14.9541779,1.82749326 L16.6657682,1.82749326 C16.7843666,1.82749326 16.8814016,1.73045822 16.8814016,1.61185984 L16.8814016,0.215633423 C16.8814016,0.0970350404 16.7843666,0 16.6657682,0 L3.33423181,0 C3.21563342,0 3.11859838,0.0970350404 3.11859838,0.215633423 L3.11859838,1.61455526 C3.11859838,1.73315364 3.21563342,1.83018868 3.33423181,1.83018868 L5.0458221,1.83018868 L5.0458221,6.50943396 L2.09973046,14.1320755 Z M11.0754717,8.65768194 C11.6684636,8.65768194 12.1509434,9.14016173 12.1509434,9.73315364 C12.1509434,10.3261456 11.6684636,10.8086253 11.0754717,10.8086253 C10.4824798,10.8086253 10,10.3261456 10,9.73315364 C10,9.14016173 10.4824798,8.65768194 11.0754717,8.65768194 L11.0754717,8.65768194 Z M19.8652291,19.2210243 L19.0592992,17.1347709 L16.7493261,15.6927224 L16.7466307,15.6954178 C16.7277628,15.6819407 16.7061995,15.6684636 16.6873315,15.6549865 L16.4690027,15.5202156 L16.4609164,15.5121294 C15.6792453,15.0404313 14.7816712,14.7897574 13.8463612,14.7897574 C12.6361186,14.7897574 11.4959569,15.212938 10.5849057,15.9703504 C9.33942699,17.0147138 7.76555696,17.5864228 6.14016173,17.5849057 C4.7115903,17.5849057 3.35040431,17.1509434 2.19946092,16.3557951 L1.42048518,15.8679245 L0.134770889,19.2210243 C0.0592991914,19.4204852 0.0188679245,19.6307278 0.0188679245,19.8409704 C0.0188679245,20.7897574 0.789757412,21.5606469 1.73854447,21.5606469 L18.2587601,21.5606469 C18.4716981,21.5606469 18.6819407,21.5202156 18.8787062,21.4447439 C19.3054277,21.2819803 19.6495611,20.9556698 19.8347665,20.5381985 C20.019972,20.1207273 20.0309369,19.6466111 19.8652291,19.2210243 Z" id="Shape"></path>
            </g>
        </g>
    </g>
</svg>