<?xml version="1.0" encoding="UTF-8"?>
<svg width="20px" height="20px" viewBox="0 0 20 20" version="1.1" xmlns="http://www.w3.org/2000/svg" xmlns:xlink="http://www.w3.org/1999/xlink">
    <!-- Generator: Sketch 55.1 (78136) - https://sketchapp.com -->
    <title>github</title>
    <desc>Created with Sketch.</desc>
    <g id="Landing" stroke="none" stroke-width="1" fill="none" fill-rule="evenodd">
        <g id="Background-pattern-images" transform="translate(-1246.000000, -105.000000)" fill="#FFFFFF" fill-rule="nonzero">
            <g id="github" transform="translate(1246.000000, 105.000000)">
                <path d="M9.99107143,0.00669559272 C4.47098214,0.00446428571 0,4.47321429 0,9.98883929 C0,14.3504464 2.796875,18.0580357 6.69196429,19.4196429 C7.21651786,19.5513393 7.13616071,19.1785714 7.13616071,18.9241071 L7.13616071,17.1941964 C4.10714286,17.5491071 3.984375,15.5446429 3.78125,15.2098214 C3.37053571,14.5089286 2.39955357,14.3303571 2.68973214,13.9955357 C3.37946429,13.640625 4.08258929,14.0848214 4.89732143,15.2879464 C5.48660714,16.1607143 6.63616071,16.0133929 7.21875,15.8683036 C7.34598214,15.34375 7.61830357,14.875 7.99330357,14.5111607 C4.85491071,13.9486607 3.546875,12.0334821 3.546875,9.75669643 C3.546875,8.65178571 3.91071429,7.63616071 4.625,6.81696429 C4.16964286,5.46651786 4.66741071,4.31026786 4.734375,4.13839286 C6.03125,4.02232143 7.37946429,5.06696429 7.484375,5.14955357 C8.22098214,4.95089286 9.0625,4.84598214 10.0044643,4.84598214 C10.9508929,4.84598214 11.7946429,4.95535714 12.5379464,5.15625 C12.7901786,4.96428571 14.0401786,4.06696429 15.2455357,4.17633929 C15.3102679,4.34821429 15.796875,5.47767857 15.3683036,6.81026786 C16.0915179,7.63169643 16.4598214,8.65625 16.4598214,9.76339286 C16.4598214,12.0446429 15.1428571,13.9620536 11.9955357,14.515625 C12.5400944,15.0511622 12.8465454,15.7831054 12.8459821,16.546875 L12.8459821,19.0580357 C12.8638393,19.2589286 12.8459821,19.4575893 13.1808036,19.4575893 C17.1339286,18.125 19.9799107,14.390625 19.9799107,9.99107143 C19.9799107,4.47321429 15.5066964,0.00669559272 9.99107143,0.00669559272 Z" id="Path"></path>
            </g>
        </g>
    </g>
</svg>