<?xml version="1.0" encoding="UTF-8"?>
<svg width="20px" height="25px" viewBox="0 0 20 25" version="1.1" xmlns="http://www.w3.org/2000/svg" xmlns:xlink="http://www.w3.org/1999/xlink">
    <!-- Generator: Sketch 55.1 (78136) - https://sketchapp.com -->
    <title>rocket</title>
    <desc>Created with Sketch.</desc>
    <g id="Landing" stroke="none" stroke-width="1" fill="none" fill-rule="evenodd">
        <g id="Background-pattern-images" transform="translate(-1316.000000, -102.000000)" fill="#FFFFFF" fill-rule="nonzero">
            <g id="rocket" transform="translate(1316.000000, 102.000000)">
                <path d="M20,18.5227273 C20,15.3522727 18.1420455,12.6136364 15.4545455,11.3380682 L15.4545455,6.62784091 C15.4545455,6.19886364 15.3039773,5.78409091 15.0255682,5.45738636 L10.6960227,0.323863636 C10.5142045,0.107954545 10.2556818,0 10,0 C9.74431818,0 9.48579545,0.107954545 9.30397727,0.323863636 L4.97443182,5.45738636 C4.69791515,5.78475918 4.5459783,6.19931535 4.54545455,6.62784091 L4.54545455,11.3380682 C1.85795455,12.6136364 0,15.3522727 0,18.5227273 L4.44602273,18.5227273 C4.38068182,18.7272727 4.34659091,18.9488636 4.34659091,19.1988636 C4.34659091,19.8267045 4.5625,20.4403409 4.95454545,20.9261364 C5.27455037,21.323452 5.69836654,21.6243517 6.17897727,21.7954545 C6.83522727,23.3295455 8.32670455,24.3181818 10,24.3181818 C10.8267045,24.3181818 11.6278409,24.0738636 12.3125,23.6136364 C12.9829545,23.1647727 13.5028409,22.5369318 13.8181818,21.7954545 C14.2985947,21.6254051 14.7224423,21.3254665 15.0426136,20.9289773 C15.4351819,20.4387694 15.6495487,19.8297273 15.6505682,19.2017045 C15.6505682,18.9630682 15.6193182,18.7357955 15.5625,18.5255682 L20,18.5227273 Z M10,7.61363636 C10.7422691,7.62878866 11.3360839,8.23484903 11.3360839,8.97727273 C11.3360839,9.71969642 10.7422691,10.3257568 10,10.3409091 C9.25773094,10.3257568 8.66391611,9.71969642 8.66391611,8.97727273 C8.66391611,8.23484903 9.25773094,7.62878866 10,7.61363636 L10,7.61363636 Z M13.2982955,19.8920455 C13.1505682,19.9772727 12.9801136,20.0113636 12.8125,19.9886364 L12.2585227,19.9204545 L12.1789773,20.4715909 C12.0255682,21.5482955 11.0880682,22.3607955 10,22.3607955 C8.91193182,22.3607955 7.97443182,21.5482955 7.82102273,20.4715909 L7.74147727,19.9176136 L7.1875,19.9886364 C7.01908417,20.0087104 6.84868977,19.9738343 6.70170455,19.8892045 C6.45454545,19.7471591 6.30113636,19.4829545 6.30113636,19.1960227 C6.30113636,18.8948864 6.46875,18.6448864 6.71590909,18.5198864 L13.2869318,18.5198864 C13.5369318,18.6477273 13.7017045,18.8977273 13.7017045,19.1960227 C13.6988636,19.4857955 13.5454545,19.7528409 13.2982955,19.8920455 L13.2982955,19.8920455 Z" id="Shape"></path>
            </g>
        </g>
    </g>
</svg>