<?xml version="1.0" encoding="UTF-8"?>
<svg width="32px" height="15px" viewBox="0 0 32 15" version="1.1" xmlns="http://www.w3.org/2000/svg" xmlns:xlink="http://www.w3.org/1999/xlink">
    <!-- Generator: Sketch 55.1 (78136) - https://sketchapp.com -->
    <title>Combined Shape</title>
    <desc>Created with Sketch.</desc>
    <g id="Atoms" stroke="none" stroke-width="1" fill="none" fill-rule="evenodd">
        <g id="Atoms/Logo/Short-Icon-White" transform="translate(0.000000, -9.000000)" fill="#3AA1FF" fill-rule="nonzero">
            <path d="M14.6042378,15.4122173 L17.3870468,15.4122173 C17.5432203,13.7440716 18.2415127,12.302125 19.4819383,11.0863436 C20.901035,9.69544092 22.6302394,9 24.6696035,9 C26.7183656,9 28.4569679,9.70013984 29.8854626,11.1004405 C31.2951612,12.5007412 32,14.2205478 32,16.2599119 C32,18.318072 31.2904623,20.0425775 29.8713656,21.4334802 C28.442871,22.8149849 26.6901719,23.5057269 24.6132159,23.5057269 C22.5550558,23.5057269 20.8305503,22.8008881 19.4396476,21.3911894 C18.5538441,20.5053859 17.950109,19.4747492 17.6284371,18.2992658 L14.3856945,18.2992658 C14.0627831,19.4848891 13.4402407,20.5296225 12.5180617,21.4334802 C11.089567,22.8149849 9.33686795,23.5057269 7.25991189,23.5057269 C5.20175182,23.5057269 3.47724631,22.8008881 2.08634361,21.3911894 C0.695440916,20.0002867 -7.10542736e-15,18.2522866 -7.10542736e-15,16.1471366 C-7.10542736e-15,14.1641604 0.709537692,12.4772463 2.12863436,11.0863436 C3.54773103,9.69544092 5.27693547,9 7.31629956,9 C9.36506164,9 11.1036639,9.70013984 12.5321586,11.1004405 C13.7421006,12.3023163 14.4327892,13.7395643 14.6042378,15.4122173 Z M3.24229075,16.2035242 C3.24229075,17.5756309 3.60880691,18.6610826 4.34185022,19.4599119 C5.09368952,20.2681391 6.08516271,20.6722467 7.31629956,20.6722467 C8.5568344,20.6722467 9.54830759,20.2728381 10.2907489,19.4740088 C11.0331902,18.6751796 11.4044053,17.6085236 11.4044053,16.2740088 C11.4044053,14.9394941 11.0331902,13.8728381 10.2907489,13.0740088 C9.5389096,12.2657816 8.54743641,11.861674 7.31629956,11.861674 C6.1039587,11.861674 5.12188335,12.2657816 4.37004405,13.0740088 C3.61820476,13.8822361 3.24229075,14.9253974 3.24229075,16.2035242 Z M20.5955947,16.2035242 C20.5955947,17.5756309 20.9621109,18.6610826 21.6951542,19.4599119 C22.4469935,20.2681391 23.4384667,20.6722467 24.6696035,20.6722467 C25.9101384,20.6722467 26.9016116,20.2728381 27.6440529,19.4740088 C28.3864942,18.6751796 28.7577093,17.6085236 28.7577093,16.2740088 C28.7577093,14.9394941 28.3864942,13.8728381 27.6440529,13.0740088 C26.8922136,12.2657816 25.9007404,11.861674 24.6696035,11.861674 C23.4572627,11.861674 22.4751873,12.2657816 21.723348,13.0740088 C20.9715087,13.8822361 20.5955947,14.9253974 20.5955947,16.2035242 Z" id="Combined-Shape"></path>
        </g>
    </g>
</svg>