<?xml version="1.0" encoding="UTF-8"?>
<svg width="14px" height="13px" viewBox="0 0 14 13" version="1.1" xmlns="http://www.w3.org/2000/svg" xmlns:xlink="http://www.w3.org/1999/xlink">
    <!-- Generator: Sketch 55.1 (78136) - https://sketchapp.com -->
    <title>clock-circle</title>
    <desc>Created with Sketch.</desc>
    <g id="Landing" stroke="none" stroke-width="1" fill="none" fill-rule="evenodd" fill-opacity="0.85">
        <g transform="translate(-120.000000, -3479.000000)" fill="#000000" fill-rule="nonzero" id="Our-courses">
            <g transform="translate(-5.000000, 3011.000000)">
                <g id="Group-9" transform="translate(107.000000, 270.000000)">
                    <g id="courses-list">
                        <g id="Organisms/Course-Card/Landing">
                            <g id="info-panel" transform="translate(18.858070, 197.000000)">
                                <g id="Group">
                                    <g id="clock-circle" transform="translate(0.000000, 1.000000)">
                                        <path d="M6.5,0 C2.91049107,0 0,2.91049107 0,6.5 C0,10.0895089 2.91049107,13 6.5,13 C10.0895089,13 13,10.0895089 13,6.5 C13,2.91049107 10.0895089,0 6.5,0 Z M6.5,11.8973214 C3.51986607,11.8973214 1.10267857,9.48013393 1.10267857,6.5 C1.10267857,3.51986607 3.51986607,1.10267857 6.5,1.10267857 C9.48013393,1.10267857 11.8973214,3.51986607 11.8973214,6.5 C11.8973214,9.48013393 9.48013393,11.8973214 6.5,11.8973214 Z" id="Shape"></path>
                                        <path d="M8.95248405,8.22191418 L6.91559859,6.72057745 L6.91559859,3.11649558 C6.91559859,3.05242301 6.86417651,3 6.80132731,3 L6.11427127,3 C6.05142207,3 6,3.05242301 6,3.11649558 L6,7.12685577 C6,7.16471683 6.01714069,7.1996655 6.0471369,7.22150842 L8.4096955,8.97767922 C8.46111757,9.01554029 8.53253712,9.00389073 8.56967528,8.95292391 L8.97819509,8.38500798 C9.01533325,8.33112878 9.00390613,8.25831904 8.95248405,8.22191418 L8.95248405,8.22191418 Z" id="Path"></path>
                                    </g>
                                </g>
                            </g>
                        </g>
                    </g>
                </g>
            </g>
        </g>
    </g>
</svg>