<?xml version="1.0" encoding="UTF-8"?>
<svg width="210px" height="123px" viewBox="0 0 210 123" version="1.1" xmlns="http://www.w3.org/2000/svg" xmlns:xlink="http://www.w3.org/1999/xlink">
    <!-- Generator: Sketch 55.1 (78136) - https://sketchapp.com -->
    <title>Organisms/Course Card/_Resources/django</title>
    <desc>Created with Sketch.</desc>
    <g id="Organisms/Course-Card/_Resources/django" stroke="none" stroke-width="1" fill="none" fill-rule="evenodd">
        <g id="django" transform="translate(38.000000, 33.000000)" fill="#1890FF" fill-rule="nonzero">
            <path d="M96.3728,26.4222222 L96.48,24.2740741 L96.48,23.6296296 L95.6224,23.6296296 C94.336,23.6296296 92.9424,23.9518519 91.9776,24.5962963 C90.4768,25.4555556 89.6192,27.0666667 89.6192,29.3222222 C89.6192,32.5444444 91.2272,34.3703704 94.0144,34.3703704 C94.872,34.3703704 95.408,34.262963 96.48,33.9407407 L96.48,29.3222222 L96.3728,26.4222222 L96.3728,26.4222222 Z M16.4016,29.2148148 C16.4016,32.6518519 18.1168,34.4777778 21.44,34.4777778 C22.1904,34.4777778 22.512,34.4777778 23.584,34.262963 L23.584,24.0592593 C22.512,23.8444444 22.2976,23.737037 21.44,23.737037 C18.224,23.737037 16.4016,25.7777778 16.4016,29.2148148 Z M48.1328,33.4037037 C48.1328,34.6925926 48.8832,35.2296296 50.5984,35.2296296 C51.5632,35.2296296 52.528,35.1222222 53.6,34.9074074 L53.6,30.6111111 C49.312,31.0407407 48.1328,31.6851852 48.1328,33.4037037 L48.1328,33.4037037 Z M115.6688,23.6296296 C113.2032,23.6296296 111.7024,25.6703704 111.7024,29.2148148 C111.7024,32.7592593 113.096,34.8 115.6688,34.8 C118.1344,34.8 119.528,32.7592593 119.528,29.2148148 C119.528,25.7777778 118.1344,23.6296296 115.6688,23.6296296 Z M134,7.41111111 C134,3.32962963 130.6768,0 126.6032,0 L7.3968,0 C3.3232,0 0,3.32962963 0,7.41111111 L0,50.4814815 C0,54.6703704 3.3232,58 7.3968,58 L126.496,58 C130.5696,58 133.8928,54.6703704 133.8928,50.5888889 L133.8928,7.41111111 L134,7.41111111 Z M9.9696,29.3222222 C9.9696,22.8777778 14.2576,18.5814815 20.904,18.5814815 C21.976,18.5814815 22.6192,18.6888889 23.6912,18.9037037 L23.6912,9.66666667 L30.1232,9.66666667 L30.1232,38.6666667 C26.9072,39.3111111 24.4416,39.5259259 21.8688,39.5259259 C14.0432,39.5259259 9.9696,36.0888889 9.9696,29.3222222 Z M39.664,33.8333333 C39.664,38.8814815 39.4496,41.3518519 38.3776,43.5 C37.3056,45.5407407 36.1264,46.8296296 33.3392,48.2259259 L27.4432,45.4333333 C30.2304,44.1444444 31.4096,42.962963 32.2672,41.137037 C33.1248,39.3111111 33.232,37.162963 33.232,31.6851852 L33.232,19.3333333 L39.664,19.3333333 L39.664,33.8333333 L39.664,33.8333333 Z M39.664,16.1111111 L33.232,16.1111111 L33.232,9.66666667 L39.664,9.66666667 L39.664,16.1111111 Z M58.96,38.9888889 C56.816,39.4185185 52.7424,39.7407407 50.0624,39.7407407 C44.7024,39.7407407 42.4512,37.9148148 42.4512,33.7259259 C42.4512,29.2148148 45.9888,27.1740741 53.4928,26.5296296 L53.4928,25.1333333 C53.4928,23.9518519 52.9568,23.5222222 51.3488,23.5222222 C48.9904,23.5222222 45.9888,24.1666667 43.8448,25.4555556 L43.8448,20.5148148 C47.0608,19.2259259 49.312,18.5814815 52.2064,18.5814815 C55.4224,18.5814815 57.352,19.4407407 58.3168,21.1592593 C58.8528,22.1259259 58.8528,23.3074074 58.8528,25.9925926 L58.8528,38.9888889 L58.96,38.9888889 Z M81.472,39.7407407 L75.04,39.7407407 L75.04,27.0666667 C75.04,24.5962963 73.968,23.737037 71.7168,23.737037 C70.8592,23.737037 69.68,23.8444444 68.608,24.1666667 L68.608,39.7407407 L62.176,39.7407407 L62.176,20.0851852 C66.464,19.1185185 69.144,18.6888889 72.2528,18.6888889 C75.4688,18.6888889 78.0416,19.4407407 79.4352,20.837037 C80.8288,22.2333333 81.472,23.6296296 81.472,26.8518519 L81.472,39.7407407 L81.472,39.7407407 Z M102.1616,27.2814815 L102.912,33.2962963 L102.912,35.1222222 C102.912,40.6 102.2688,43.1777778 100.8752,45.2185185 C98.9456,48.3333333 95.408,49.837037 90.4768,49.837037 C88.0112,49.837037 85.6528,49.5148148 83.5088,48.5481481 L83.5088,42.6407407 C85.6528,43.8222222 88.0112,44.3592593 90.3696,44.3592593 C94.5504,44.3592593 96.3728,42.6407407 96.3728,38.6666667 L96.3728,38.5592593 C95.3008,39.2037037 93.8,39.4185185 92.192,39.4185185 C86.6176,39.4185185 83.08,35.7666667 83.08,29.9666667 C83.08,22.7703704 88.3328,18.6888889 97.552,18.6888889 C100.232,18.6888889 102.8048,19.0111111 105.8064,19.5481481 L103.3408,24.1666667 C101.6256,23.8444444 104.7344,24.1666667 102.5904,23.9518519 L102.1616,27.2814815 Z M115.5616,39.8481481 C109.2368,39.8481481 105.2704,35.8740741 105.2704,29.4296296 C105.2704,22.7703704 109.344,18.5814815 115.776,18.5814815 C122.1008,18.5814815 125.96,22.5555556 125.96,29.1074074 C126.0672,35.6592593 121.9936,39.8481481 115.5616,39.8481481 Z" id="Shape"></path>
        </g>
    </g>
</svg>