<?xml version="1.0" encoding="UTF-8"?>
<svg width="68px" height="26px" viewBox="0 0 68 26" version="1.1" xmlns="http://www.w3.org/2000/svg" xmlns:xlink="http://www.w3.org/1999/xlink">
    <g id="Landing" stroke="none" stroke-width="1" fill="none" fill-rule="evenodd">
        <g id="Artboard" transform="translate(-68.000000, -39.000000)" fill="#FFFFFF">
            <g id="Group">
                <g id="Atoms/Logo/White" transform="translate(67.003599, 33.000000)">
                    <g id="okoo" transform="translate(1.447011, 6.258789)">
                        <path d="M0,17.5048828 C0,15.4443256 0.758668251,13.6914135 2.27602751,12.2460938 C3.79338678,10.800774 5.64232662,10.078125 7.82290251,10.078125 C10.0135271,10.078125 11.8725156,10.8056568 13.3999236,12.2607422 C14.9072341,13.7158276 15.6608781,15.5029191 15.6608781,17.6220703 C15.6608781,19.7607529 14.9022098,21.5527271 13.3848505,22.9980469 C11.8574425,24.4336009 9.98338124,25.1513672 7.76261039,25.1513672 C5.56193703,25.1513672 3.71802148,24.4189526 2.23080842,22.9541016 C0.743595372,21.5087818 0,19.6923938 0,17.5048828 Z M3.46679687,17.5634766 C3.46679687,18.9892649 3.85869173,20.1171833 4.64249321,20.9472656 C5.44639215,21.7871136 6.50651799,22.2070312 7.82290251,22.2070312 C9.14933578,22.2070312 10.2094616,21.7919963 11.0033118,20.9619141 C11.797162,20.1318318 12.1940812,19.0234444 12.1940812,17.6367188 C12.1940812,16.2499931 11.797162,15.1416057 11.0033118,14.3115234 C10.1994129,13.4716755 9.13928704,13.0517578 7.82290251,13.0517578 C6.52661546,13.0517578 5.47653821,13.4716755 4.67263927,14.3115234 C3.86874032,15.1513714 3.46679687,16.2353449 3.46679687,17.5634766 Z M22.6396909,0 L22.6396909,15.0878906 L27.4178414,10.4736328 L31.9698964,10.4736328 L25.5940048,16.4648438 L32.4371603,24.7412109 L28.0358356,24.7412109 L23.18232,18.7207031 L22.6396909,19.2480469 L22.6396909,24.7412109 L19.2482592,24.7412109 L19.2482592,0 L22.6396909,0 Z" id="ok" fill-rule="nonzero"></path>
                        <path d="M33.3113961,17.5048828 C33.3113961,15.4443256 34.0700643,13.6914135 35.5874236,12.2460938 C37.1047828,10.800774 38.9537227,10.078125 41.1342986,10.078125 C43.3249232,10.078125 45.1839116,10.8056568 46.7113196,12.2607422 C48.2186302,13.7158276 48.9722741,15.5029191 48.9722741,17.6220703 C48.9722741,19.7607529 48.2136059,21.5527271 46.6962466,22.9980469 C45.1688386,24.4336009 43.2947773,25.1513672 41.0740065,25.1513672 C38.8733331,25.1513672 37.0294175,24.4189526 35.5422045,22.9541016 C34.0549914,21.5087818 33.3113961,19.6923938 33.3113961,17.5048828 Z M36.7781929,17.5634766 C36.7781929,18.9892649 37.1700878,20.1171833 37.9538893,20.9472656 C38.7577882,21.7871136 39.817914,22.2070312 41.1342986,22.2070312 C42.4607318,22.2070312 43.5208577,21.7919963 44.3147079,20.9619141 C45.1085581,20.1318318 45.5054772,19.0234444 45.5054772,17.6367188 C45.5054772,16.2499931 45.1085581,15.1416057 44.3147079,14.3115234 C43.5108089,13.4716755 42.4506831,13.0517578 41.1342986,13.0517578 C39.8380115,13.0517578 38.7879343,13.4716755 37.9840353,14.3115234 C37.1801364,15.1513714 36.7781929,16.2353449 36.7781929,17.5634766 Z M51.8662959,17.5048828 C51.8662959,15.4443256 52.6249641,13.6914135 54.1423234,12.2460938 C55.6596826,10.800774 57.5086225,10.078125 59.6891984,10.078125 C61.879823,10.078125 63.7388114,10.8056568 65.2662194,12.2607422 C66.77353,13.7158276 67.5271739,15.5029191 67.5271739,17.6220703 C67.5271739,19.7607529 66.7685057,21.5527271 65.2511464,22.9980469 C63.7237384,24.4336009 61.8496771,25.1513672 59.6289062,25.1513672 C57.4282329,25.1513672 55.5843173,24.4189526 54.0971043,22.9541016 C52.6098912,21.5087818 51.8662959,19.6923938 51.8662959,17.5048828 Z M55.3330927,17.5634766 C55.3330927,18.9892649 55.7249876,20.1171833 56.5087891,20.9472656 C57.312688,21.7871136 58.3728138,22.2070312 59.6891984,22.2070312 C61.0156316,22.2070312 62.0757575,21.7919963 62.8696077,20.9619141 C63.6634579,20.1318318 64.060377,19.0234444 64.060377,17.6367188 C64.060377,16.2499931 63.6634579,15.1416057 62.8696077,14.3115234 C62.0657087,13.4716755 61.0055829,13.0517578 59.6891984,13.0517578 C58.3929113,13.0517578 57.3428341,13.4716755 56.5389351,14.3115234 C55.7350362,15.1513714 55.3330927,16.2353449 55.3330927,17.5634766 Z" id="oo" fill-rule="nonzero"></path>
                        <rect id="Rectangle" x="46.915308" y="16.7412109" width="7.20289855" height="3"></rect>
                    </g>
                </g>
            </g>
        </g>
    </g>
</svg>