<?xml version="1.0" encoding="UTF-8"?>
<svg width="48px" height="48px" viewBox="0 0 48 48" version="1.1" xmlns="http://www.w3.org/2000/svg" xmlns:xlink="http://www.w3.org/1999/xlink">
    <!-- Generator: Sketch 55.1 (78136) - https://sketchapp.com -->
    <title>Path</title>
    <desc>Created with Sketch.</desc>
    <g id="Atoms" stroke="none" stroke-width="1" fill="none" fill-rule="evenodd">
        <g id="Atoms/Icons/Phone" fill="#FFFFFF" fill-rule="nonzero">
            <g id="phone">
                <path d="M45.7076364,7.58446602 L39.5112727,1.38640777 C38.6284586,0.498638091 37.4286884,-1.35513647e-07 36.1774545,-1.35513647e-07 C34.9149091,-1.35513647e-07 33.728,0.495145631 32.8378182,1.38640777 L26.1701818,8.06213592 C25.2834882,8.94602146 24.7851544,10.1472476 24.7854545,11.4 C24.7854545,12.6640777 25.28,13.8524272 26.1701818,14.7436893 L31.0458182,19.6252427 C29.9045443,22.143846 28.3178054,24.4350753 26.3621818,26.3883495 C24.411469,28.3510996 22.123214,29.9455474 19.6072727,31.0951456 L14.7316364,26.2135922 C13.8488222,25.3258226 12.6490521,24.8268839 11.3978182,24.8271845 C10.1352727,24.8271845 8.94836364,25.3223301 8.05818182,26.2135922 L1.38472727,32.8834951 C0.49693056,33.7690244 -0.00146267816,34.9724904 -3.21041217e-06,36.2271845 C-3.21041217e-06,37.4912621 0.494545455,38.6796117 1.38472727,39.5708738 L7.56945455,45.7631068 C8.98909091,47.1902913 10.9498182,47.9999999 12.9629091,47.9999999 C13.3876364,47.9999999 13.7949091,47.9650485 14.1963636,47.8951456 C22.0392727,46.6019417 29.8181818,42.4252427 36.096,36.1456311 C42.368,29.8718447 46.5338182,22.0893204 47.8429091,14.2135922 C48.2385455,11.807767 47.4414545,9.33203884 45.7076364,7.58446602 Z" id="Path"></path>
            </g>
        </g>
    </g>
</svg>