<?xml version="1.0" encoding="UTF-8"?>
<svg width="210px" height="123px" viewBox="0 0 210 123" version="1.1" xmlns="http://www.w3.org/2000/svg" xmlns:xlink="http://www.w3.org/1999/xlink">
    <!-- Generator: Sketch 55.1 (78136) - https://sketchapp.com -->
    <title>Organisms/Course Card/_Resources/python</title>
    <desc>Created with Sketch.</desc>
    <g id="Organisms/Course-Card/_Resources/python" stroke="none" stroke-width="1" fill="none" fill-rule="evenodd">
        <path d="M95.197251,60.5942214 L115.67509,60.5942214 C121.375512,60.5942214 125.865903,55.7675122 125.865903,50.0391332 L125.865903,30.5031894 C125.865903,24.9427754 121.208369,20.765437 115.64419,19.8377643 C112.122948,19.2509411 108.484425,18.9838838 104.978634,19.0007506 C101.474247,19.0169145 98.2282998,19.315597 95.2836317,19.8377643 C86.6069384,21.3705327 85.1335509,24.582248 85.1335509,30.5031894 L85.1335509,38.1051861 L105.499727,38.1051861 L105.499727,40.9163155 L77.2511384,40.9163155 C71.2929785,40.9163155 66.0750237,44.5061278 64.4436228,51.325225 C62.5608049,59.1401647 62.4772334,63.918382 64.4436228,72.0783879 C65.9008578,78.151833 69.3806648,82.3804744 75.339527,82.3804744 L82.3244231,82.3804744 L82.3244231,73.2105703 C82.3244231,66.4378567 88.2432553,60.5942214 95.197251,60.5942214 Z M93.9064568,33.1084035 C91.7813517,33.1084035 90.0593564,31.3662061 90.0593564,29.2114754 C90.0593564,27.0476085 91.7806494,25.2892471 93.9064568,25.2892471 C96.0238368,25.2892471 97.7542595,27.0476085 97.7542595,29.2114754 C97.7535572,31.3662061 96.0231345,33.1084035 93.9064568,33.1084035 Z M146.42942,51.325225 C144.956033,45.3881196 142.143394,40.9163155 136.176806,40.9163155 L128.675031,40.9163155 L128.675031,50.0391332 C128.675031,57.1020959 122.499163,62.7025685 115.67509,62.7025685 L95.197251,62.7025685 C89.5874229,62.7025685 85.1335509,67.851152 85.1335509,73.4734109 L85.1335509,93.0107603 C85.1335509,98.5697688 89.8704425,101.840518 95.2899522,103.435834 C101.780442,105.345293 107.926813,105.69036 115.691945,103.435834 C120.853015,101.93961 125.865903,98.9302961 125.865903,93.0107603 L125.865903,85.1916038 L105.499727,85.1916038 L105.499727,82.3804744 L136.176806,82.3804744 C142.134966,82.3804744 144.356284,78.3212035 146.42942,72.0776851 C148.569273,65.6507405 148.477274,59.568862 146.42942,51.325225 Z M116.965182,90.4041406 C119.090989,90.4041406 120.812985,92.146338 120.812985,94.3024743 C120.812985,96.4642328 119.091692,98.2232971 116.965182,98.2232971 C114.847802,98.2232971 113.118081,96.4649356 113.118081,94.3024743 C113.118081,92.146338 114.847802,90.4041406 116.965182,90.4041406 Z" id="Shape" fill="#1890FF" fill-rule="nonzero"></path>
    </g>
</svg>