<?xml version="1.0" encoding="UTF-8"?>
<svg width="210px" height="123px" viewBox="0 0 210 123" version="1.1" xmlns="http://www.w3.org/2000/svg" xmlns:xlink="http://www.w3.org/1999/xlink">
    <!-- Generator: Sketch 55.1 (78136) - https://sketchapp.com -->
    <title>Organisms/Course Card/_Resources/startup</title>
    <desc>Created with Sketch.</desc>
    <g id="Organisms/Course-Card/_Resources/startup" stroke="none" stroke-width="1" fill="none" fill-rule="evenodd">
        <g id="startup" transform="translate(61.000000, 16.000000)" fill="#1890FF" fill-rule="nonzero">
            <path d="M85,40.8092784 C80.1804124,27.8041237 67.4742268,21.0773196 53.4536082,23.7680412 C39.871134,9.86597938 21.0309278,0.448453608 2.19072165,0 C0.87628866,0 0,0.896907216 0,2.24226804 C0.43814433,21.5257732 9.63917526,40.8092784 22.7835052,54.7113402 C20.5927835,68.6134021 26.7268041,82.0670103 39.4329897,87 C37.242268,81.1701031 36.8041237,74.443299 38.556701,67.7164948 C40.7474227,69.0618557 42.9381443,70.4072165 45.128866,71.3041237 C46.0051546,71.7525773 46.8814433,71.7525773 47.757732,70.8556701 L69.6649485,48.4329897 C70.1030928,47.9845361 70.1030928,47.0876289 69.6649485,46.1907216 C68.7886598,43.9484536 67.4742268,41.7061856 66.1597938,39.9123711 C72.7319588,38.1185567 79.3041237,38.5670103 85,40.8092784 Z M36.8041237,37.6701031 C33.2989691,41.257732 28.0412371,41.257732 24.5360825,37.6701031 C21.0309278,34.0824742 21.0309278,28.7010309 24.5360825,25.1134021 C28.0412371,21.5257732 33.2989691,21.5257732 36.8041237,25.1134021 C40.3092784,28.7010309 40.3092784,34.0824742 36.8041237,37.6701031 Z" id="Shape"></path>
            <path d="M86.6829268,64.5365854 L77.4634146,55.3170732 C75.7073171,53.5609756 73.0731707,53.5609756 71.3170732,55.3170732 C69.5609756,57.0731707 69.5609756,59.7073171 71.3170732,61.4634146 L80.5365854,70.6829268 C82.2926829,72.4390244 84.9268293,72.4390244 86.6829268,70.6829268 C88.4390244,68.9268293 88.4390244,66.2926829 86.6829268,64.5365854 Z" id="Path"></path>
            <path d="M69.6829268,82.5365854 L60.4634146,73.3170732 C58.7073171,71.5609756 56.0731707,71.5609756 54.3170732,73.3170732 C52.5609756,75.0731707 52.5609756,77.7073171 54.3170732,79.4634146 L63.5365854,88.6829268 C65.2926829,90.4390244 67.9268293,90.4390244 69.6829268,88.6829268 C71.4390244,86.9268293 71.4390244,84.2926829 69.6829268,82.5365854 Z" id="Path"></path>
            <path d="M81.6530612,77.0204082 L68.6326531,63.4081633 C66.8367347,61.5306122 64.1428571,61.5306122 62.3469388,63.4081633 C60.5510204,65.2857143 60.5510204,68.1020408 62.3469388,69.9795918 L75.3673469,83.5918367 C77.1632653,85.4693878 79.8571429,85.4693878 81.6530612,83.5918367 C83.4489796,81.7142857 83.4489796,78.8979592 81.6530612,77.0204082 Z" id="Path"></path>
        </g>
    </g>
</svg>